<svg width="798" height="211" viewBox="0 0 798 211" fill="none" xmlns="http://www.w3.org/2000/svg">
<path d="M148.292 4.31006L21.2576 94.0901L79.5722 124.6L27.62 205.89L151.599 117.54L95.0637 84.3101L148.292 4.31006Z" fill="#FDB304"/>
<path d="M11.1224 210.19C10.7302 210.192 10.3414 210.112 9.97846 209.952C9.61553 209.792 9.28563 209.557 9.00777 209.26C8.51036 208.733 8.19855 208.038 8.1255 207.292C8.05246 206.546 8.2227 205.796 8.6072 205.17L57.3642 126.09L1.75104 98.22C1.26505 97.9825 0.84718 97.6096 0.540845 97.14C0.234509 96.6705 0.0508876 96.1215 0.009059 95.55C-0.0319817 94.9817 0.066912 94.4119 0.295818 93.8976C0.524724 93.3833 0.875592 92.9427 1.31322 92.62L126.941 0.569992C127.522 0.140587 128.225 -0.0562316 128.927 0.0138959C129.629 0.0840234 130.286 0.416642 130.783 0.953685C131.28 1.49073 131.585 2.19807 131.646 2.95224C131.706 3.70641 131.518 4.45948 131.114 5.07999L81.0533 83.01L135.083 113.52C135.541 113.78 135.93 114.162 136.211 114.63C136.492 115.099 136.656 115.636 136.686 116.192C136.717 116.748 136.614 117.303 136.387 117.803C136.16 118.304 135.817 118.733 135.39 119.05L12.8271 209.62C12.3249 209.989 11.731 210.188 11.1224 210.19ZM9.08229 94.76L63.1118 121.82C63.4979 122.025 63.8387 122.316 64.1116 122.674C64.3845 123.032 64.5832 123.448 64.6943 123.895C64.8054 124.341 64.8264 124.809 64.7559 125.265C64.6854 125.721 64.5251 126.156 64.2855 126.54L22.1891 194.85L127.891 116.76L75.2591 87.01C74.8913 86.807 74.5665 86.5246 74.3052 86.1804C74.0439 85.8362 73.8517 85.4377 73.7407 85.01C73.6398 84.5663 73.6267 84.1047 73.7021 83.6552C73.7775 83.2057 73.9398 82.7781 74.1785 82.4L116.983 15.75L9.08229 94.76Z" fill="#ECECEC"/>
<path d="M231.749 15.51C266.43 15.51 306.487 60.01 303.692 100.01C300.898 140.01 267.828 178.01 231.749 178.01C195.67 178.01 157.906 140.01 157.906 100.01C155.111 62.51 193.304 15.51 231.749 15.51ZM179.331 100.01C179.331 134.01 256.482 115.01 231.749 157.51C207.016 200.01 281.801 130.01 281.801 100.01C281.801 70.01 201.01 91.51 231.749 39.51C262.488 -12.49 176.071 75.01 179.331 100.01Z" fill="#ECECEC"/>
<path d="M423.591 68.33C424.569 69.8 424.374 70.85 423.2 71.91L413.987 79.69C413.72 79.9048 413.415 80.0592 413.091 80.144C412.767 80.2288 412.43 80.2421 412.101 80.1832C411.772 80.1243 411.457 79.9945 411.176 79.8014C410.895 79.6083 410.653 79.3561 410.466 79.06C402.082 67.28 391.835 61.39 378.514 61.39C356.762 61.39 341.252 79.06 341.252 102.39C341.252 125.95 356.734 143.62 378.514 143.62C391.844 143.62 402.427 137.31 410.857 125.53C411.835 124.27 412.813 124.27 414.183 125.32L423.396 133.32C424.569 134.38 424.765 135.43 423.787 136.9C413.009 153.1 396.772 161.51 378.514 161.51C347.158 161.51 323.255 136.69 323.255 102.4C323.255 68.53 347.158 43.5 378.514 43.5C396.744 43.51 413.204 52.34 423.591 68.33Z" fill="#ECECEC"/>
<path d="M520.202 97.7799C531.967 102.62 538.627 112.72 538.627 124.5C538.627 144.27 523.536 159.84 502.959 159.84H445.93C445.242 159.773 444.602 159.436 444.133 158.893C443.663 158.351 443.397 157.641 443.386 156.9V48.1299C443.386 46.2399 444.169 45.1899 445.93 45.1899H499.819C519.382 45.1899 531.371 59.6999 531.371 76.5299C531.371 84.1099 526.471 93.1499 520.192 96.5299L520.202 97.7799ZM461.021 89.7799H500.807C502.456 89.8144 504.094 89.4983 505.629 88.8499C507.163 88.2016 508.563 87.2337 509.747 86.0021C510.932 84.7706 511.878 83.2996 512.53 81.6739C513.183 80.0482 513.53 78.3 513.55 76.5299C513.55 68.9599 508.455 62.8599 500.024 62.8599H461.021V89.7799ZM461.021 141.95H502.372C513.345 141.95 520.788 135.22 520.788 124.49C520.788 113.34 513.932 107.66 502.372 107.66H461.021V141.95Z" fill="#ECECEC"/>
<path d="M553.132 16.16C553.18 12.1598 554.681 8.33783 557.315 5.50809C559.949 2.67834 563.509 1.06441 567.235 1.01001C574.492 1.01001 581.152 7.95001 581.152 16.16C581.152 24.37 574.492 31.3 567.235 31.3C563.51 31.2457 559.952 29.6331 557.318 26.8055C554.684 23.9779 553.182 20.1585 553.132 16.16ZM573.309 45.16C573.683 45.1056 574.064 45.1436 574.422 45.2711C574.78 45.3987 575.107 45.6125 575.376 45.8961C575.646 46.1797 575.851 46.5257 575.977 46.9077C576.104 47.2896 576.147 47.6974 576.103 48.1V156.9C576.147 157.303 576.104 157.71 575.977 158.092C575.851 158.474 575.646 158.82 575.376 159.104C575.107 159.388 574.78 159.601 574.422 159.729C574.064 159.856 573.683 159.894 573.309 159.84H560.966C560.596 159.885 560.222 159.839 559.871 159.707C559.52 159.575 559.201 159.36 558.937 159.077C558.674 158.795 558.474 158.453 558.351 158.076C558.228 157.699 558.186 157.297 558.227 156.9V48.13C558.186 47.7331 558.228 47.3313 558.351 46.9543C558.474 46.5773 558.674 46.2349 558.937 45.9525C559.201 45.6701 559.52 45.4549 559.871 45.3229C560.222 45.1909 560.596 45.1455 560.966 45.19L573.309 45.16Z" fill="#ECECEC"/>
<path d="M684.824 45.1901C685.193 45.1456 685.568 45.191 685.919 45.323C686.27 45.455 686.589 45.6702 686.852 45.9526C687.115 46.235 687.316 46.5774 687.439 46.9544C687.562 47.3314 687.604 47.7332 687.562 48.1301V60.1301C687.613 60.5317 687.578 60.9403 687.459 61.325C687.34 61.7096 687.141 62.06 686.877 62.3494C686.613 62.6388 686.29 62.8596 685.934 62.9949C685.579 63.1302 685.199 63.1764 684.824 63.1301H648.568V156.96C648.577 157.354 648.511 157.746 648.373 158.111C648.235 158.476 648.029 158.807 647.767 159.083C647.505 159.359 647.192 159.574 646.849 159.714C646.506 159.855 646.14 159.918 645.773 159.9H633.477C633.103 159.955 632.722 159.917 632.364 159.789C632.006 159.661 631.679 159.448 631.41 159.164C631.14 158.88 630.934 158.534 630.808 158.152C630.682 157.77 630.639 157.363 630.682 156.96V63.0701H594.473C594.098 63.1164 593.718 63.0702 593.363 62.9349C593.007 62.7996 592.685 62.5788 592.42 62.2894C592.156 62 591.957 61.6496 591.838 61.2649C591.719 60.8803 591.684 60.4717 591.735 60.0701V48.0701C591.693 47.6732 591.735 47.2714 591.858 46.8944C591.981 46.5174 592.182 46.175 592.445 45.8926C592.708 45.6102 593.027 45.395 593.378 45.263C593.729 45.131 594.104 45.0856 594.473 45.1301L684.824 45.1901Z" fill="#ECECEC"/>
<path d="M775.752 144.06C765.169 155.63 751.839 161.52 735.574 161.52C710.888 161.52 696.384 146.17 696.384 125.97C696.384 105.57 711.866 92.52 731.466 89.79L773.6 83.9V80.32C773.6 67.7 762.822 61.39 748.513 61.39C735.77 61.39 723.623 64.96 712.649 73.59C712.369 73.8211 712.049 73.9885 711.707 74.0822C711.365 74.1759 711.008 74.1938 710.66 74.1348C710.311 74.0759 709.977 73.9413 709.679 73.7393C709.38 73.5373 709.123 73.2722 708.923 72.96L702.262 63.28C701.089 61.81 701.284 60.55 702.654 59.28C715.596 48.76 730.882 43.5033 748.513 43.51C771.243 43.51 791.43 56.34 791.43 81.58V121.13C791.311 130.023 792.707 138.865 795.547 147.22L797.699 153.53C798.481 155.42 797.699 156.27 796.33 156.9L785.943 160.9C785.623 161.064 785.275 161.157 784.92 161.171C784.566 161.186 784.212 161.122 783.882 160.984C783.551 160.847 783.25 160.638 782.997 160.37C782.744 160.103 782.545 159.783 782.412 159.43L776.73 144.07L775.752 144.06ZM773.6 100.31L733.031 107.01C722.253 108.69 714.214 115.42 714.214 124.89C714.214 137.89 724.992 143.61 736.757 143.61C751.662 143.61 765.561 136.67 773.6 124.68V100.31Z" fill="#ECECEC"/>
</svg>
