<?xml version="1.0" encoding="utf-8"?>
<!-- Generator: Adobe Illustrator 27.5.0, SVG Export Plug-In . SVG Version: 6.00 Build 0)  -->
<svg version="1.1" xmlns="http://www.w3.org/2000/svg" xmlns:xlink="http://www.w3.org/1999/xlink" x="0px" y="0px"
	 viewBox="0 0 3710 3710" style="enable-background:new 0 0 3710 3710;" xml:space="preserve">
<g id="Background">
	<g>
		<g>
			<!-- <rect style="fill:#FFFFFF;" width="3710" height="3710"/> -->
		</g>
	</g>
</g>
<g id="Illustration">
	<g>
		
			<linearGradient id="SVGID_1_" gradientUnits="userSpaceOnUse" x1="3775.8142" y1="2434.7029" x2="1729.4661" y2="225.9459" gradientTransform="matrix(0.8938 0.4484 -0.4484 0.8938 216.4178 193.1891)">
			<stop  offset="0" style="stop-color:#DAE3FE"/>
			<stop  offset="1" style="stop-color:#E9EFFD"/>
		</linearGradient>
		<path style="fill:url(#SVGID_1_);" d="M2809.059,2809.489c-546.011,461.368-1336.003,380.892-1834.22,77.119
			c-136.034-82.942-409.736-249.824-526.931-572.525C222.845,1694.357,713.385,881.027,1373.265,588.33
			c84.979-37.693,666.045-284.357,1232.539,7.023c414.756,213.333,589.225,595.596,610.087,642.78
			c26.354,59.607,81.308,197.402,100.563,381.932C3361.698,2053.647,3150.261,2521.18,2809.059,2809.489z"/>
		<g>
			<g>
				<g style="opacity:0.3;">
					<path style="fill:#91B3FA;" d="M1382.194,772.447c-5.402,1.775-11.22-1.168-12.992-6.569
						c-3.446-10.494-7.398-20.994-11.749-31.21c-2.201-5.169,0.152-11.133,5.255-13.422c0.06-0.027,0.121-0.054,0.183-0.082
						c5.23-2.227,11.276,0.209,13.503,5.44c4.578,10.753,8.74,21.806,12.367,32.854c1.66,5.051-0.809,10.467-5.556,12.596
						C1382.879,772.201,1382.542,772.334,1382.194,772.447z M1332.868,686.397c-5.699-9.523-11.86-18.891-18.316-27.854
						c-3.321-4.609-2.278-11.044,2.334-14.368c4.641-3.32,11.047-2.276,14.37,2.337c6.793,9.428,13.279,19.29,19.278,29.309
						c2.919,4.878,1.33,11.2-3.547,14.12c-0.354,0.212-0.717,0.4-1.084,0.565C1341.208,692.611,1335.576,690.921,1332.868,686.397z
						 M1279.923,616.924c-7.655-7.993-15.75-15.75-24.067-23.058c-4.269-3.752-4.689-10.258-0.937-14.527
						c3.754-4.262,10.254-4.687,14.528-0.937c8.758,7.697,17.285,15.867,25.344,24.283c3.932,4.106,3.79,10.621-0.314,14.555
						c-0.876,0.838-1.86,1.491-2.906,1.96C1287.711,620.931,1283.016,620.154,1279.923,616.924z M1212.77,561.036
						c-9.259-6.088-18.891-11.842-28.625-17.109c-5-2.707-6.86-8.953-4.156-13.952c2.71-4.997,8.954-6.854,13.952-4.156
						c10.25,5.547,20.389,11.607,30.136,18.01c4.749,3.122,6.07,9.506,2.948,14.255c-1.117,1.7-2.651,2.961-4.379,3.736
						C1219.543,563.212,1215.821,563.039,1212.77,561.036z M1134.84,521.502c-10.355-3.869-21.024-7.352-31.707-10.342
						c-5.475-1.536-8.668-7.217-7.135-12.69c1.534-5.478,7.217-8.67,12.69-7.132c11.239,3.147,22.465,6.811,33.36,10.883
						c5.325,1.988,8.029,7.918,6.038,13.245c-1.002,2.684-3.005,4.702-5.429,5.789
						C1140.271,522.323,1137.481,522.49,1134.84,521.502z M1050.105,500.197c-10.97-1.487-22.139-2.519-33.201-3.07
						c-5.677-0.283-10.053-5.116-9.769-10.791c0.282-5.679,5.111-10.053,10.792-9.772c11.64,0.578,23.399,1.668,34.943,3.232
						c5.633,0.765,9.58,5.949,8.818,11.584c-0.496,3.66-2.858,6.605-5.997,8.013C1053.997,500.152,1052.08,500.465,1050.105,500.197
						z M690.475,629.72c-4.264-3.759-4.674-10.264-0.913-14.529c7.703-8.734,15.894-17.251,24.341-25.31
						c4.114-3.925,10.63-3.772,14.553,0.343c3.924,4.11,3.77,10.626-0.342,14.55c-8.021,7.652-15.796,15.74-23.11,24.035
						c-1.004,1.138-2.201,2-3.501,2.584C697.932,632.994,693.6,632.479,690.475,629.72z M962.808,498.205
						c-11.02,0.99-22.131,2.47-33.026,4.404c-5.599,0.991-10.942-2.742-11.935-8.339c-0.993-5.6,2.748-10.914,8.34-11.933
						c11.473-2.034,23.174-3.594,34.779-4.635c5.662-0.508,10.664,3.669,11.173,9.333c0.404,4.49-2.142,8.567-6.038,10.314
						C965.087,497.804,963.979,498.099,962.808,498.205z M755.446,567.855c-3.314-4.617-2.255-11.05,2.364-14.365
						c9.462-6.786,19.343-13.254,29.364-19.229c4.875-2.936,11.201-1.309,14.113,3.572c2.91,4.882,1.311,11.2-3.572,14.113
						c-9.524,5.677-18.914,11.824-27.905,18.275c-0.574,0.412-1.177,0.753-1.796,1.03
						C763.639,573.214,758.346,571.9,755.446,567.855z M877.271,515.77c-10.514,3.429-21.019,7.356-31.224,11.678
						c-5.235,2.22-11.275-0.227-13.493-5.463c-2.187-5.166,0.167-11.118,5.263-13.404c0.066-0.03,0.134-0.06,0.202-0.086
						c10.742-4.553,21.801-8.69,32.866-12.3c5.407-1.759,11.216,1.192,12.98,6.597c1.647,5.047-0.823,10.452-5.563,12.578
						C877.97,515.519,877.624,515.652,877.271,515.77z"/>
					<path style="fill:#91B3FA;" d="M658.798,689.71c1.849-0.829,3.475-2.211,4.599-4.081c2.734-4.549,5.612-9.114,8.546-13.576
						c3.126-4.747,1.811-11.133-2.937-14.256c-4.747-3.128-11.138-1.817-14.257,2.94c-3.09,4.691-6.113,9.493-8.993,14.279
						c-2.93,4.87-1.356,11.198,3.513,14.126C652.272,690.949,655.826,691.043,658.798,689.71z"/>
				</g>
				<g style="opacity:0.3;">
					<path style="fill:#91B3FA;" d="M614.897,1000.449c4.533-2.033,7.048-7.11,5.718-12.061c-1.379-5.124-2.674-10.364-3.846-15.571
						c-1.25-5.547-6.758-9.03-12.304-7.781c-5.569,1.255-9.029,6.76-7.781,12.304c1.236,5.482,2.599,11.001,4.049,16.397
						c1.477,5.489,7.125,8.742,12.615,7.267C613.887,1000.858,614.404,1000.67,614.897,1000.449z"/>
					<path style="fill:#91B3FA;" d="M1147.129,1270.414c-5.294,2.07-11.265-0.544-13.336-5.842
						c-2.068-5.295,0.545-11.253,5.841-13.333c10.081-3.94,20.149-8.372,30.045-13.216c5.073-2.505,11.272-0.384,13.772,4.721
						c2.5,5.106,0.386,11.271-4.719,13.772c-4.287,2.099-8.593,4.118-12.914,6.056
						C1159.652,1265.339,1153.364,1267.979,1147.129,1270.414z M1213.043,1225.677c-3.165-4.719-1.907-11.113,2.814-14.279
						c9.062-6.083,17.966-12.61,26.463-19.409c4.422-3.561,10.916-2.834,14.469,1.605c3.55,4.437,2.831,10.915-1.607,14.466
						c-8.945,7.159-18.318,14.033-27.856,20.43c-0.495,0.332-1.008,0.616-1.533,0.851
						C1221.302,1231.356,1215.88,1229.905,1213.043,1225.677z M1093.61,1287.209c-11.136,2.672-22.54,4.905-33.895,6.632
						c-5.62,0.855-10.87-3.009-11.726-8.631c-0.854-5.619,3.01-10.86,8.63-11.724c10.785-1.638,21.611-3.757,32.185-6.296
						c5.529-1.325,11.086,2.079,12.413,7.609c1.173,4.89-1.359,9.802-5.787,11.788
						C1094.855,1286.845,1094.246,1287.056,1093.61,1287.209z M1281.935,1170.471c-4.126-3.909-4.304-10.426-0.392-14.551
						c7.496-7.91,14.741-16.236,21.536-24.744c3.549-4.447,10.022-5.169,14.466-1.619c4.442,3.547,5.167,10.022,1.62,14.464
						c-7.157,8.961-14.787,17.729-22.679,26.058c-0.955,1.005-2.061,1.78-3.254,2.314
						C1289.54,1174.049,1285.053,1173.426,1281.935,1170.471z M1003.853,1298.439c-11.444,0.157-23.055-0.174-34.512-0.984
						c-5.67-0.4-9.941-5.319-9.542-10.989c0.399-5.674,5.322-9.945,10.993-9.545c10.883,0.768,21.912,1.083,32.78,0.933
						c5.685-0.078,10.357,4.468,10.435,10.153c0.058,4.236-2.451,7.908-6.083,9.537
						C1006.678,1298.102,1005.301,1298.42,1003.853,1298.439z M913.809,1289.713c-11.229-2.354-22.489-5.21-33.468-8.486
						c-5.448-1.629-8.545-7.361-6.92-12.809c1.629-5.455,7.363-8.551,12.808-6.917c10.432,3.112,21.133,5.826,31.803,8.065
						c5.565,1.166,9.129,6.623,7.963,12.187c-0.705,3.352-2.966,5.979-5.869,7.281
						C918.211,1289.893,916.018,1290.176,913.809,1289.713z M827.803,1261.569c-10.455-4.746-20.826-9.987-30.823-15.573
						c-4.964-2.775-6.736-9.044-3.964-14.007c2.777-4.969,9.046-6.737,14.007-3.964c9.499,5.311,19.352,10.287,29.29,14.797
						c5.177,2.349,7.469,8.452,5.118,13.626c-1.079,2.379-2.948,4.147-5.156,5.137
						C833.672,1262.753,830.602,1262.839,827.803,1261.569z M749.985,1215.335c-9.164-6.916-18.138-14.304-26.672-21.96
						c-4.232-3.795-4.586-10.304-0.789-14.536c3.789-4.225,10.303-4.582,14.536-0.786c8.103,7.268,16.623,14.283,25.329,20.853
						c4.537,3.425,5.44,9.877,2.014,14.414c-1.082,1.433-2.465,2.503-3.995,3.189
						C757.094,1217.995,753.092,1217.678,749.985,1215.335z M684.194,1153.099c-7.396-8.744-14.515-17.921-21.163-27.278
						c-3.293-4.635-2.205-11.063,2.43-14.354c4.621-3.28,11.059-2.206,14.352,2.429c6.314,8.89,13.076,17.605,20.101,25.912
						c3.671,4.338,3.128,10.835-1.213,14.504c-0.756,0.639-1.577,1.152-2.437,1.538
						C692.186,1157.681,687.226,1156.683,684.194,1153.099z M633.728,1078.014c-3.917-7.475-7.652-15.165-11.099-22.851
						c-1.249-2.784-2.462-5.572-3.644-8.369c-2.211-5.234,0.13-11.348,5.475-13.486c5.235-2.216,11.275,0.236,13.489,5.473
						c1.123,2.656,2.277,5.311,3.463,7.956c3.278,7.308,6.826,14.614,10.549,21.723c2.639,5.034,0.694,11.256-4.341,13.893
						c-0.19,0.098-0.38,0.193-0.573,0.279C642.123,1084.843,636.265,1082.86,633.728,1078.014z"/>
					<path style="fill:#91B3FA;" d="M1346.595,1101.778c1.867-0.838,3.503-2.236,4.628-4.125c2.849-4.79,5.65-9.73,8.326-14.685
						c2.703-5.002,0.839-11.248-4.163-13.949c-5.003-2.7-11.245-0.844-13.949,4.163c-2.543,4.706-5.204,9.399-7.908,13.947
						c-2.907,4.882-1.303,11.2,3.584,14.107C1340.109,1103.017,1343.641,1103.103,1346.595,1101.778z"/>
				</g>
				<g>
					<path style="fill:#91B3FA;" d="M1303.309,930.702c0.532-1.983-0.25-4.084-1.95-5.234l-48.495-32.815
						c0.895-27.331-2.561-55-10.674-81.945l38.416-44.141c1.347-1.549,1.563-3.781,0.539-5.56l-35.055-60.86
						c-1.024-1.779-3.065-2.712-5.079-2.323l-57.458,11.081c-19.237-20.539-41.437-37.413-65.527-50.352l-4.051-58.413
						c-0.143-2.047-1.568-3.779-3.55-4.313l-67.823-18.248c-1.981-0.533-4.085,0.25-5.234,1.95l-32.814,48.495
						c-27.33-0.896-55,2.56-81.946,10.674l-44.141-38.416c-1.549-1.348-3.781-1.565-5.559-0.54l-60.862,35.055
						c-1.779,1.025-2.711,3.065-2.322,5.08l11.081,57.459c-20.539,19.236-37.414,41.437-50.352,65.527l-58.414,4.05
						c-2.047,0.142-3.78,1.567-4.313,3.55l-18.248,67.823c-0.533,1.982,0.25,4.084,1.949,5.234l48.497,32.815
						c-0.897,27.33,2.56,54.999,10.674,81.945l-38.416,44.141c-1.348,1.548-1.565,3.781-0.54,5.559l35.056,60.862
						c1.025,1.779,3.064,2.711,5.079,2.322l57.459-11.081c19.237,20.539,41.437,37.413,65.527,50.352l4.051,58.413
						c0.141,2.047,1.566,3.779,3.549,4.313l67.823,18.248c1.982,0.533,4.084-0.25,5.234-1.949l32.815-48.496
						c27.33,0.896,54.999-2.56,81.946-10.674l44.141,38.416c1.548,1.346,3.78,1.564,5.559,0.539l60.861-35.056
						c1.778-1.025,2.712-3.064,2.323-5.08l-11.081-57.457c20.539-19.237,37.412-41.437,50.352-65.527l58.414-4.05
						c2.047-0.142,3.78-1.568,4.313-3.549L1303.309,930.702z"/>
					<g>
						<path style="fill:#BDD0FB;" d="M1015.584,952.434c-37.462,10.58-76.548-11.285-87.132-48.751
							c-5.128-18.148-2.879-37.206,6.329-53.662c9.205-16.454,24.268-28.345,42.42-33.467c37.463-10.58,76.548,11.286,87.132,48.75
							c9.626,34.083-7.604,69.508-39.004,83.591C1022.217,950.292,1018.961,951.479,1015.584,952.434z M949.155,858.064
							c-7.06,12.619-8.783,27.229-4.852,41.146c8.113,28.72,38.083,45.49,66.805,37.376c28.734-8.106,45.49-38.083,37.377-66.807
							c-8.113-28.72-38.083-45.49-66.805-37.376c-2.605,0.736-5.121,1.654-7.546,2.741
							C963.602,839.866,954.894,847.809,949.155,858.064z"/>
					</g>
					<g>
						<path style="fill:#BDD0FB;" d="M1065.742,1042.525c5.393-2.419,10.696-5.123,15.887-8.113l0,0
							c1.634-0.94,3.253-1.909,4.857-2.901c7.906-4.899,15.409-10.419,22.394-16.474c0.095-0.082,0.19-0.165,0.286-0.247
							c0.269-0.235,0.538-0.471,0.805-0.71c0.523-0.459,1.041-0.925,1.558-1.39c1.358-1.226,1.709-3.151,1-4.736
							c-0.173-0.385-0.409-0.75-0.707-1.08c-1.524-1.687-4.126-1.811-5.814-0.292c-8.681,7.846-18.266,14.807-28.489,20.692
							c-50.77,29.254-110.746,28.445-159.207,3.169c-26.956-14.055-50.349-35.684-66.614-63.925
							c-2.853-4.951-5.436-10.011-7.741-15.156c-15.523-34.62-18.641-73.204-8.65-110.335
							c11.474-42.652,38.873-78.284,77.146-100.328c79.049-45.52,180.315-18.25,225.821,60.756
							c2.806,4.871,5.355,9.867,7.639,14.963c9.901,22.084,14.859,46.089,14.435,70.309c-0.01,0.626,0.118,1.221,0.36,1.756
							c0.632,1.409,2.037,2.404,3.685,2.432c2.275,0.033,4.152-1.766,4.189-4.047c0.445-25.428-4.759-50.632-15.153-73.817
							c-2.397-5.35-5.073-10.592-8.016-15.706c-47.777-82.95-154.148-111.543-237.068-63.785
							c-40.181,23.143-68.941,60.548-80.987,105.325c-10.49,38.981-7.216,79.487,9.079,115.831c2.422,5.4,5.133,10.711,8.125,15.909
							c23.146,40.182,60.55,68.945,105.326,80.992C988.877,1062.11,1029.392,1058.829,1065.742,1042.525z"/>
					</g>
				</g>
			</g>
			<g>
				<g style="opacity:0.3;">
					<path style="fill:#91B3FA;" d="M1814.722,875.809c2.51-1.126,4.087-3.799,3.693-6.664c-0.732-5.347-1.635-10.746-2.688-16.044
						c-0.684-3.443-4.027-5.679-7.474-4.997c-3.452,0.671-5.68,4.031-4.997,7.474c1.002,5.049,1.864,10.194,2.564,15.297
						c0.474,3.476,3.681,5.908,7.161,5.437C1813.599,876.224,1814.181,876.052,1814.722,875.809z"/>
					<path style="fill:#91B3FA;" d="M1803.059,828.407c-3.334,1.101-6.929-0.703-8.034-4.038
						c-2.789-8.411-6.042-16.778-9.667-24.862c-0.765-1.705-1.552-3.407-2.359-5.107c-1.5-3.171-0.149-6.962,3.024-8.467
						c3.057-1.303,6.962-0.149,8.471,3.025c0.842,1.78,1.665,3.561,2.466,5.345c3.801,8.474,7.211,17.247,10.134,26.069
						c1.036,3.121-0.486,6.478-3.426,7.797C1803.472,828.256,1803.268,828.334,1803.059,828.407z M1767.42,766.12
						c-5.749-9.077-12.109-17.881-18.909-26.161c-2.228-2.716-1.835-6.716,0.879-8.947c2.703-2.213,6.719-1.837,8.948,0.879
						c7.127,8.677,13.798,17.906,19.823,27.425c1.879,2.967,0.997,6.895-1.97,8.777c-0.26,0.164-0.533,0.307-0.807,0.43
						C1772.546,769.795,1769.133,768.823,1767.42,766.12z M1726.503,716.332c-7.785-7.382-16.115-14.349-24.765-20.717
						c-2.825-2.08-3.43-6.062-1.349-8.887c2.09-2.835,6.058-3.438,8.889-1.353c9.071,6.675,17.809,13.99,25.973,21.726
						c2.547,2.416,2.658,6.442,0.242,8.989c-0.591,0.618-1.275,1.096-2.011,1.426
						C1731.201,718.539,1728.43,718.156,1726.503,716.332z M1674.602,678.119c-9.372-5.255-19.158-9.976-29.074-14.021
						c-3.254-1.331-4.812-5.041-3.483-8.29c1.326-3.242,5.035-4.81,8.286-3.485c10.404,4.248,20.659,9.195,30.49,14.706
						c3.063,1.716,4.153,5.595,2.437,8.658c-0.696,1.231-1.738,2.147-2.939,2.686
						C1678.544,679.168,1676.43,679.143,1674.602,678.119z M1614.945,653.734c-10.364-2.816-20.996-5.015-31.609-6.543
						c-3.472-0.497-5.885-3.722-5.386-7.198c0.499-3.476,3.719-5.894,7.199-5.386c11.121,1.599,22.268,3.907,33.13,6.854
						c3.387,0.924,5.389,4.415,4.469,7.801c-0.52,1.914-1.86,3.386-3.537,4.138C1617.917,653.979,1616.421,654.133,1614.945,653.734
						z M1551.177,644.57c-10.727-0.211-21.564,0.248-32.219,1.366c-3.489,0.367-6.62-2.168-6.985-5.658
						c-0.364-3.491,2.159-6.61,5.66-6.989c11.171-1.172,22.544-1.653,33.795-1.433c3.509,0.073,6.3,2.971,6.231,6.48
						c-0.051,2.54-1.585,4.705-3.757,5.68C1553.072,644.387,1552.149,644.59,1551.177,644.57z M1487.13,651.277
						c-10.417,2.421-20.822,5.528-30.925,9.243c-3.297,1.207-6.949-0.483-8.158-3.778c-1.212-3.293,0.493-6.896,3.775-8.164
						c10.593-3.886,21.502-7.147,32.428-9.686c3.421-0.793,6.838,1.335,7.634,4.755c0.699,3.007-0.867,6.016-3.586,7.236
						C1487.929,651.047,1487.54,651.182,1487.13,651.277z M1390.052,688.313c-1.976-2.903-1.224-6.854,1.68-8.831
						c8.036-5.469,16.51-10.59,25.161-15.212c1.311-0.71,2.627-1.396,3.948-2.076c3.061-1.686,6.957-0.372,8.557,2.763
						c1.603,3.125,0.366,6.953-2.759,8.558c-1.241,0.632-2.477,1.282-3.728,1.958c-8.282,4.422-16.365,9.307-24.029,14.52
						c-0.315,0.216-0.645,0.398-0.979,0.548C1395.142,691.78,1391.811,690.899,1390.052,688.313z"/>
				</g>
				<g style="opacity:0.3;">
					<path style="fill:#91B3FA;" d="M1655.182,1158.529c-10.168,4.404-20.694,8.22-31.283,11.357
						c-3.366,0.992-6.904-0.926-7.901-4.295c-0.998-3.37,0.959-6.881,4.295-7.901c10.099-2.986,20.138-6.63,29.838-10.831
						c3.221-1.397,6.966,0.087,8.359,3.307c1.383,3.197-0.063,6.907-3.229,8.328
						C1655.236,1158.505,1655.207,1158.518,1655.182,1158.529z M1676.194,1141.198c-1.77-3.03-0.748-6.925,2.283-8.693
						c9.12-5.328,18.009-11.262,26.42-17.64c2.787-2.101,6.786-1.574,8.908,1.231c2.122,2.797,1.572,6.78-1.225,8.905
						c-8.815,6.682-18.131,12.902-27.689,18.482c-0.202,0.118-0.404,0.222-0.614,0.316
						C1681.355,1145.11,1677.851,1144.034,1676.194,1141.198z M1591.442,1177.36c-10.937,1.816-22.077,2.981-33.11,3.46
						c-3.508,0.151-6.478-2.572-6.628-6.077c-0.156-3.51,2.559-6.462,6.073-6.63c10.527-0.454,21.15-1.565,31.586-3.293
						c3.465-0.574,6.737,1.768,7.311,5.226c0.483,2.913-1.095,5.69-3.667,6.844
						C1592.52,1177.108,1591.997,1177.268,1591.442,1177.36z M1728.85,1103.155c-2.448-2.516-2.39-6.542,0.125-8.99
						c7.571-7.363,14.762-15.263,21.375-23.488c2.202-2.729,6.205-3.164,8.936-0.974c2.737,2.202,3.174,6.204,0.972,8.941
						c-6.932,8.628-14.476,16.917-22.418,24.637c-0.551,0.533-1.171,0.947-1.83,1.243
						C1733.642,1105.585,1730.763,1105.121,1728.85,1103.155z M1525.064,1180.227c-11.027-0.865-22.117-2.417-32.966-4.607
						c-3.442-0.695-5.668-4.051-4.973-7.493c0.695-3.442,4.046-5.673,7.493-4.974c10.347,2.095,20.923,3.571,31.44,4.393
						c3.499,0.275,6.116,3.334,5.84,6.839c-0.186,2.398-1.688,4.384-3.741,5.305
						C1527.22,1180.11,1526.164,1180.312,1525.064,1180.227z M1459.927,1167.085c-10.52-3.488-20.922-7.648-30.914-12.359
						c-3.174-1.496-4.535-5.281-3.038-8.457c1.493-3.174,5.282-4.54,8.462-3.04c9.529,4.49,19.453,8.456,29.493,11.786
						c3.333,1.104,5.138,4.704,4.033,8.037c-0.585,1.76-1.864,3.096-3.436,3.801
						C1463.128,1167.479,1461.497,1167.605,1459.927,1167.085z M1399.806,1138.723c-9.386-5.908-18.49-12.446-27.057-19.424
						c-2.724-2.221-3.131-6.223-0.913-8.946c2.216-2.722,6.223-3.125,8.942-0.915c8.168,6.658,16.849,12.891,25.8,18.518
						c2.972,1.871,3.866,5.798,1.993,8.768c-0.691,1.106-1.668,1.918-2.772,2.413
						C1403.924,1139.978,1401.677,1139.898,1399.806,1138.723z"/>
					<path style="fill:#91B3FA;" d="M1776.874,1053.663c1.119-0.502,2.104-1.332,2.799-2.453c2.865-4.626,5.604-9.359,8.148-14.065
						c1.667-3.089,0.517-6.948-2.572-8.618c-3.088-1.657-6.943-0.513-8.618,2.573c-2.423,4.489-5.039,9.003-7.77,13.42
						c-1.849,2.986-0.924,6.906,2.061,8.751C1772.785,1054.422,1775.013,1054.498,1776.874,1053.663z"/>
				</g>
				<g>
					<path style="fill:#91B3FA;" d="M1750.652,935.503c0.356-1.327-0.167-2.733-1.305-3.503l-32.451-21.958
						c0.599-18.288-1.714-36.803-7.143-54.834l25.706-29.537c0.902-1.036,1.046-2.53,0.361-3.72l-23.458-40.725
						c-0.685-1.191-2.051-1.815-3.398-1.555l-38.449,7.415c-12.872-13.744-27.727-25.036-43.847-33.694l-2.711-39.087
						c-0.095-1.37-1.049-2.529-2.375-2.886l-45.384-12.21c-1.326-0.357-2.733,0.167-3.503,1.305l-21.957,32.45
						c-18.288-0.6-36.804,1.713-54.835,7.143l-29.537-25.706c-1.036-0.902-2.53-1.047-3.72-0.361l-40.726,23.457
						c-1.191,0.686-1.814,2.051-1.554,3.399l7.415,38.449c-13.744,12.872-25.036,27.727-33.693,43.848l-39.088,2.71
						c-1.37,0.095-2.529,1.049-2.886,2.375l-12.211,45.385c-0.356,1.326,0.168,2.732,1.304,3.502l32.452,21.959
						c-0.6,18.288,1.713,36.803,7.143,54.834l-25.706,29.537c-0.902,1.035-1.047,2.529-0.361,3.72l23.458,40.726
						c0.686,1.19,2.05,1.814,3.399,1.554l38.448-7.415c12.872,13.744,27.728,25.036,43.848,33.693l2.71,39.087
						c0.095,1.37,1.049,2.529,2.375,2.886l45.384,12.211c1.327,0.357,2.733-0.167,3.503-1.304l21.958-32.451
						c18.288,0.6,36.803-1.714,54.834-7.143l29.537,25.706c1.036,0.901,2.53,1.046,3.72,0.361l40.725-23.458
						c1.19-0.686,1.814-2.051,1.554-3.399l-7.414-38.448c13.744-12.872,25.035-27.728,33.693-43.848l39.088-2.711
						c1.37-0.095,2.529-1.049,2.885-2.375L1750.652,935.503z"/>
					<g>
						<path style="fill:#BDD0FB;" d="M1558.354,950.86c-12.364,3.497-25.347,1.965-36.557-4.31
							c-11.208-6.268-19.306-16.531-22.796-28.895c-7.208-25.515,7.668-52.091,33.207-59.354
							c25.522-7.202,52.144,7.695,59.347,33.206c3.493,12.362,1.964,25.344-4.308,36.554c-5.099,9.112-12.835,16.167-22.193,20.365
							C1562.903,949.391,1560.662,950.205,1558.354,950.86z M1511.234,914.196c2.569,9.096,8.524,16.645,16.772,21.26
							c8.243,4.611,17.795,5.737,26.887,3.169l0,0c9.09-2.58,16.641-8.526,21.256-16.774c4.615-8.241,5.736-17.795,3.17-26.884
							c-5.302-18.771-24.884-29.728-43.656-24.431c-1.693,0.481-3.322,1.075-4.883,1.775
							C1515.047,879.369,1506.411,897.123,1511.234,914.196z"/>
					</g>
					<g>
						<path style="fill:#BDD0FB;" d="M1593.267,1013.561c3.671-1.646,7.286-3.493,10.846-5.538
							c7.066-4.067,13.725-8.858,19.808-14.253c0.271-0.244,0.543-0.489,0.814-0.733c2.098-1.893,2.639-4.865,1.544-7.313
							c-0.267-0.595-0.632-1.159-1.091-1.667c-2.353-2.605-6.369-2.791-8.977-0.451c-5.631,5.091-11.836,9.596-18.441,13.395
							l-0.003,0.001c-0.362,0.21-0.729,0.415-1.091,0.618c-15.712,8.85-33.035,13.449-50.601,13.707
							c-9.535,0.139-19.147-1.007-28.615-3.463c-0.077-0.02-0.154-0.04-0.231-0.06c-0.237-0.064-0.47-0.123-0.704-0.188
							c-27.611-7.431-50.678-25.166-64.949-49.944c-1.849-3.206-3.518-6.479-5.012-9.81c-10.049-22.412-12.066-47.391-5.6-71.432
							c7.431-27.611,25.169-50.674,49.944-64.943c24.766-14.252,53.629-18.039,81.241-10.615
							c27.611,7.43,50.679,25.166,64.949,49.944c1.818,3.151,3.466,6.386,4.945,9.683c6.41,14.3,9.62,29.837,9.344,45.516
							c-0.016,0.967,0.181,1.885,0.555,2.711c0.976,2.175,3.145,3.713,5.689,3.756c3.511,0.052,6.407-2.731,6.469-6.249
							c0.307-17.543-3.284-34.931-10.45-50.925c-1.657-3.693-3.5-7.31-5.531-10.836c-15.969-27.724-41.775-47.566-72.67-55.878
							c-30.89-8.308-63.163-4.121-90.887,11.872c-27.722,15.965-47.565,41.768-55.874,72.664
							c-7.239,26.893-4.979,54.839,6.264,79.913c1.669,3.722,3.538,7.388,5.602,10.973
							C1471.473,1017.685,1537.927,1038.382,1593.267,1013.561z"/>
					</g>
				</g>
			</g>
		</g>
		<g>
			<g>
				
					<linearGradient id="SVGID_00000145775602869946356370000005967361995805439109_" gradientUnits="userSpaceOnUse" x1="1927.2418" y1="2881.3345" x2="2236.075" y2="1779.3633">
					<stop  offset="0" style="stop-color:#09005D"/>
					<stop  offset="1" style="stop-color:#1A0F91"/>
				</linearGradient>
				<polygon style="fill:url(#SVGID_00000145775602869946356370000005967361995805439109_);" points="1622.359,2550.154 
					1558.909,2988.019 2295.041,2988.019 2199.159,2550.154 				"/>
				
					<linearGradient id="SVGID_00000074404086135314335600000013045845003334844092_" gradientUnits="userSpaceOnUse" x1="1866.0889" y1="-151.8564" x2="1852.0524" y2="2052.0808">
					<stop  offset="0" style="stop-color:#09005D"/>
					<stop  offset="1" style="stop-color:#1A0F91"/>
				</linearGradient>
				<path style="fill:url(#SVGID_00000074404086135314335600000013045845003334844092_);" d="M385.787,1148.139v1303.271
					c0,107.211,85.434,194.885,192.61,197.648c476.018,12.274,2140.899,42.038,2594.036,35.358
					c77.882-1.148,140.974-63.472,143.221-141.331c8.738-302.768,22.929-1030.822-29.587-1368.829
					c-11.059-71.181-71.142-124.408-143.14-126.711c-398.843-12.759-2163.726-53.274-2616.651-43.102
					C448.161,1006.197,385.787,1070.005,385.787,1148.139z"/>
				
					<linearGradient id="SVGID_00000080929588456987295220000011855702800224425347_" gradientUnits="userSpaceOnUse" x1="297.9518" y1="2624.1919" x2="3982.8875" y2="623.8015">
					<stop  offset="0" style="stop-color:#FF928E"/>
					<stop  offset="1" style="stop-color:#FE7062"/>
				</linearGradient>
				<path style="fill:url(#SVGID_00000080929588456987295220000011855702800224425347_);" d="M467.563,1141.795v1238.197
					c0,62.596,50.247,113.6,112.837,114.536l2526.842,31.218c62.052,0.928,112.916-48.995,113.148-111.054l4.227-1227.134
					c0.166-44.374-35.187-80.731-79.547-81.811l-2587.018-52.265C508.436,1052.274,467.563,1092.165,467.563,1141.795z"/>
				<path style="fill:#91B3FA;" d="M3239.413,2576.863c-0.023,0-0.045,0-0.068,0l-2771.849-47.23
					c-2.14-0.038-3.844-1.801-3.809-3.941c0.036-2.138,1.841-3.772,3.941-3.809l2771.849,47.23c2.14,0.038,3.844,1.801,3.809,3.941
					C3243.25,2575.171,3241.523,2576.863,3239.413,2576.863z"/>
				<path style="fill:#91B3FA;" d="M1880.831,2634.542c-18.04,0-32.715-14.676-32.715-32.715c0-18.038,14.676-32.713,32.715-32.713
					s32.715,14.676,32.715,32.713C1913.546,2619.866,1898.87,2634.542,1880.831,2634.542z M1880.831,2576.863
					c-13.766,0-24.966,11.198-24.966,24.964s11.2,24.966,24.966,24.966c13.766,0,24.966-11.2,24.966-24.966
					S1894.597,2576.863,1880.831,2576.863z"/>
				
					<linearGradient id="SVGID_00000060724352136986956320000016920468705766689419_" gradientUnits="userSpaceOnUse" x1="2060.541" y1="1602.3347" x2="1955.2579" y2="2662.1877">
					<stop  offset="0" style="stop-color:#09005D"/>
					<stop  offset="1" style="stop-color:#1A0F91"/>
				</linearGradient>
				<path style="fill:url(#SVGID_00000060724352136986956320000016920468705766689419_);" d="M2453.604,3104.447h-1077.38
					c-29.269,0-51.249-20.836-45.59-43.218l13.824-54.674c4.157-16.442,22.246-28.514,43.731-29.184l1038.633-32.41
					c22.446-0.7,42.32,11.214,47.211,28.302l24.922,87.083C2505.431,3082.971,2483.346,3104.447,2453.604,3104.447z"/>
				<path style="fill:#FFFFFF;" d="M1370.523,3074.667c-0.204,0-0.409-0.015-0.617-0.049c-2.113-0.337-3.553-2.323-3.214-4.437
					l6.349-39.766c3.438-21.543,21.768-37.411,43.582-37.731l472.063-6.902c2.138-0.089,3.899,1.678,3.931,3.818
					c0.03,2.14-1.678,3.899-3.818,3.932l-472.063,6.902c-18.042,0.265-33.2,13.387-36.045,31.204l-6.349,39.766
					C1374.04,3073.309,1372.392,3074.667,1370.523,3074.667z"/>
			</g>
		</g>
		<g>
			<g>
				<g>
					<path style="fill:#BDD0FB;" d="M1671.483,2845.434l-1044.285,0.002v-201.343l1044.285,0.002
						C1649.131,2644.095,1649.131,2845.434,1671.483,2845.434z"/>
					<path style="fill:#7D97F4;" d="M627.198,2795.052v-92.143c0-32.482,20.637-58.813,46.094-58.813h993.788
						c20.019,0,36.248-15.633,36.248-34.918c0-5.859-4.931-10.609-11.013-10.609H606.181c-24.908,0-64.455,37.724-64.455,84.26
						v128.689c0,43.875,38.393,79.445,61.877,79.445h1082.997c9.239,0,16.727-7.215,16.727-16.113
						c0-16.244-13.67-29.413-30.534-29.413H666.685C644.877,2845.434,627.198,2822.877,627.198,2795.052z"/>
				</g>
				<path style="opacity:0.46;fill:#FFFFFF;" d="M1635.319,2688.915H656.161c-1.94,0-3.51-1.572-3.51-3.51
					c0-1.938,1.57-3.51,3.51-3.51h979.158c1.94,0,3.509,1.571,3.509,3.51C1638.829,2687.343,1637.259,2688.915,1635.319,2688.915z"
					/>
				<path style="opacity:0.46;fill:#FFFFFF;" d="M1635.319,2718.8H656.161c-1.94,0-3.51-1.571-3.51-3.51
					c0-1.938,1.57-3.509,3.51-3.509h979.158c1.94,0,3.509,1.571,3.509,3.509C1638.829,2717.229,1637.259,2718.8,1635.319,2718.8z"/>
				<path style="opacity:0.46;fill:#FFFFFF;" d="M1635.319,2748.687H656.161c-1.94,0-3.51-1.571-3.51-3.51
					c0-1.938,1.57-3.509,3.51-3.509h979.158c1.94,0,3.509,1.571,3.509,3.509C1638.829,2747.115,1637.259,2748.687,1635.319,2748.687
					z"/>
				<path style="opacity:0.46;fill:#FFFFFF;" d="M1635.319,2778.572H656.161c-1.94,0-3.51-1.572-3.51-3.51s1.57-3.51,3.51-3.51
					h979.158c1.94,0,3.509,1.572,3.509,3.51S1637.259,2778.572,1635.319,2778.572z"/>
				<path style="opacity:0.46;fill:#FFFFFF;" d="M1635.319,2808.457H656.161c-1.94,0-3.51-1.572-3.51-3.51
					c0-1.938,1.57-3.51,3.51-3.51h979.158c1.94,0,3.509,1.571,3.509,3.51C1638.829,2806.886,1637.259,2808.457,1635.319,2808.457z"
					/>
			</g>
			<g>
				
					<linearGradient id="SVGID_00000087382718668863357860000009576370855441791382_" gradientUnits="userSpaceOnUse" x1="1185.0842" y1="3278.1274" x2="1738.7136" y2="1354.9956">
					<stop  offset="0" style="stop-color:#FE7062"/>
					<stop  offset="1" style="stop-color:#FF928E"/>
				</linearGradient>
				<path style="fill:url(#SVGID_00000087382718668863357860000009576370855441791382_);" d="M573.263,3225.238h1350.944
					c11.814,0,21.391-9.577,21.391-21.391v-293.641c0-11.814-9.577-21.391-21.391-21.391H573.263
					c-11.814,0-21.391,9.577-21.391,21.391v293.641C551.872,3215.661,561.449,3225.238,573.263,3225.238z"/>
				
					<linearGradient id="SVGID_00000013886155950200062160000006708773052070651028_" gradientUnits="userSpaceOnUse" x1="2659.4297" y1="1530.9744" x2="1129.7213" y2="3979.9802">
					<stop  offset="0" style="stop-color:#FF928E"/>
					<stop  offset="1" style="stop-color:#FEB3B1"/>
				</linearGradient>
				<path style="fill:url(#SVGID_00000013886155950200062160000006708773052070651028_);" d="M1631.597,3186.573h149.248
					c4,0,7.242-3.242,7.242-7.242v-244.61c0-4-3.242-7.242-7.242-7.242h-149.248c-4,0-7.242,3.242-7.242,7.242v244.61
					C1624.355,3183.331,1627.597,3186.573,1631.597,3186.573z"/>
				
					<linearGradient id="SVGID_00000038406970832355962480000005241060986374809768_" gradientUnits="userSpaceOnUse" x1="2562.376" y1="1467.5577" x2="1033.5607" y2="3915.1335">
					<stop  offset="0" style="stop-color:#FF928E"/>
					<stop  offset="1" style="stop-color:#FEB3B1"/>
				</linearGradient>
				<path style="fill:url(#SVGID_00000038406970832355962480000005241060986374809768_);" d="M1544.729,3186.573h49.653
					c3.253,0,5.89-2.637,5.89-5.89V2933.37c0-3.253-2.637-5.89-5.89-5.89h-49.653c-3.253,0-5.89,2.637-5.89,5.89v247.313
					C1538.839,3183.936,1541.476,3186.573,1544.729,3186.573z"/>
			</g>
		</g>
		<g>
			
				<linearGradient id="SVGID_00000140014651179248350940000017771383029214974109_" gradientUnits="userSpaceOnUse" x1="2800.981" y1="2531.9634" x2="1651.9877" y2="1589.2001">
				<stop  offset="0" style="stop-color:#4F52FF"/>
				<stop  offset="1" style="stop-color:#4042E2"/>
			</linearGradient>
			<path style="fill:url(#SVGID_00000140014651179248350940000017771383029214974109_);" d="M1913.133,1876.73
				c-5.435,2.06-11.316,1.855-16.634-0.582l-384.164-175.979l27.28,223.889c3.818,31.331,23.172,57.118,49.336,65.631
				c239.442,77.907,463.569,95.366,659.115,0.021c17.828-8.692,31.562-25.95,37.92-47.21l69.863-233.598L1913.133,1876.73z"/>
			
				<linearGradient id="SVGID_00000115476457017614392240000007919612759564308125_" gradientUnits="userSpaceOnUse" x1="2944.1768" y1="2357.4475" x2="1795.1833" y2="1414.6843">
				<stop  offset="0" style="stop-color:#4F52FF"/>
				<stop  offset="1" style="stop-color:#4042E2"/>
			</linearGradient>
			<path style="fill:url(#SVGID_00000115476457017614392240000007919612759564308125_);" d="M1359.12,1532.833l604.787-249.403
				c5.29-2.181,11.061-2.193,16.357-0.033l598.12,243.937c22.246,9.073,21.896,45.862-0.517,54.358l-664.734,251.994
				c-5.435,2.06-11.316,1.854-16.634-0.582l-538.173-246.528C1337.118,1576.861,1337.638,1541.692,1359.12,1532.833z"/>
			
				<linearGradient id="SVGID_00000013889828310332997410000005835078578217115270_" gradientUnits="userSpaceOnUse" x1="3019.7256" y1="2265.3704" x2="1870.7349" y2="1322.609">
				<stop  offset="0" style="stop-color:#4F52FF"/>
				<stop  offset="1" style="stop-color:#4042E2"/>
			</linearGradient>
			<path style="fill:url(#SVGID_00000013889828310332997410000005835078578217115270_);" d="M2548.652,1725.969
				c0,0-131.29,182.251-8.6,298.669c4.412,4.187,10.98,2.86,13.811-2.89l46.592-94.644
				C2635.047,1856.836,2548.652,1725.969,2548.652,1725.969z"/>
			
				<linearGradient id="SVGID_00000118385915809285802870000006120033903389971358_" gradientUnits="userSpaceOnUse" x1="2324.2163" y1="713.2317" x2="2559.9067" y2="1744.3773">
				<stop  offset="0" style="stop-color:#4F52FF"/>
				<stop  offset="1" style="stop-color:#4042E2"/>
			</linearGradient>
			<polygon style="fill:url(#SVGID_00000118385915809285802870000006120033903389971358_);" points="2548.148,1755.274 
				2534.93,1755.274 2534.93,1632.728 2559.914,1624.242 			"/>
		</g>
		<g>
			<g>
				
					<linearGradient id="SVGID_00000085935595183139623750000008773050320678611355_" gradientUnits="userSpaceOnUse" x1="1245.332" y1="1033.3575" x2="1117.8232" y2="1341.62" gradientTransform="matrix(0.987 0.1608 -0.1608 0.987 126.9837 357.2448)">
					<stop  offset="0" style="stop-color:#09005D"/>
					<stop  offset="1" style="stop-color:#1A0F91"/>
				</linearGradient>
				<path style="fill:url(#SVGID_00000085935595183139623750000008773050320678611355_);" d="M1038.633,1625.089
					c-0.913,1.727-28.491,21.157-28.491,21.157s-19.171,105.557,15.985,157.529c35.157,51.973,154.954-40.564,154.954-40.564
					s67.386-10.537,101.233-143.026c7.765-30.397-40.798-7.3-94.897-1.701C1117.653,1625.703,1038.633,1625.089,1038.633,1625.089z"
					/>
				<path style="fill:#BDD0FB;" d="M925.118,1924.086c21.324-14.662,44.902-25.716,69.898-32.518
					c9.389-2.555,60.082,12.178,91.419,11.458c43.015-0.988,86.802-20.565,122.26-11.728c35.221,8.777,64.048,20.241,80.692,32.079
					c49.822,35.435,79.073,101.509,96.9,166.956c-33.754,34.649-76.231,50.048-76.231,50.048l-7.849,318.127l-188.114,96.246
					l-214.709-107.797l7.691-310.885c0,0-68.182-31.752-73.184-43.302C828.887,2081.222,864.964,1965.446,925.118,1924.086z"/>
				
					<linearGradient id="SVGID_00000104681279507428241150000004354245185637953927_" gradientUnits="userSpaceOnUse" x1="790.3831" y1="2023.2767" x2="1147.853" y2="2886.7759">
					<stop  offset="0" style="stop-color:#A22B25"/>
					<stop  offset="1" style="stop-color:#C0423C"/>
				</linearGradient>
				<path style="fill:url(#SVGID_00000104681279507428241150000004354245185637953927_);" d="M837.065,2091.382
					c0,0-91.367,253.304,116.982,357.411c43.261-5.748,26.622-77.592,26.622-77.592s-90.528-20.034-63.34-231.338
					C892.298,2119.269,837.065,2091.382,837.065,2091.382z"/>
				
					<linearGradient id="SVGID_00000101069139816222113270000001239114947041255571_" gradientUnits="userSpaceOnUse" x1="-5591.167" y1="2021.4207" x2="-5233.6968" y2="2884.9199" gradientTransform="matrix(-1 0 0 1 -4167.0742 0)">
					<stop  offset="0" style="stop-color:#A22B25"/>
					<stop  offset="1" style="stop-color:#C0423C"/>
				</linearGradient>
				<path style="fill:url(#SVGID_00000101069139816222113270000001239114947041255571_);" d="M1381.894,2091.382
					c0,0,62.869,264.415-116.982,357.411c-43.262-5.748-26.623-77.592-26.623-77.592s72.962-35.932,63.341-231.338
					C1326.661,2119.269,1381.894,2091.382,1381.894,2091.382z"/>
				
					<linearGradient id="SVGID_00000030486350126349631550000001670575716179104185_" gradientUnits="userSpaceOnUse" x1="1107.9141" y1="2134.8184" x2="1089.3269" y2="2887.6138">
					<stop  offset="0" style="stop-color:#09005D"/>
					<stop  offset="1" style="stop-color:#1A0F91"/>
				</linearGradient>
				<path style="fill:url(#SVGID_00000030486350126349631550000001670575716179104185_);" d="M1299.275,2466.584H907.048
					c-5.578,0-10.142-4.564-10.142-10.142v-258.301c0-5.578,4.564-10.142,10.142-10.142h392.227c5.578,0,10.142,4.564,10.142,10.142
					v258.3C1309.417,2462.021,1304.854,2466.584,1299.275,2466.584z"/>
				<path style="fill:#91B3FA;" d="M1127.493,2263.444c2.187,14.78-5.732,28.195-20.511,30.382s-28.534-8.021-30.722-22.801
					c-2.187-14.78,4.578-29.459,19.358-31.646C1110.398,2237.191,1125.306,2248.664,1127.493,2263.444z"/>
				<g>
					
						<linearGradient id="SVGID_00000011723783060997018320000016311665679760640399_" gradientUnits="userSpaceOnUse" x1="1332.6532" y1="2560.626" x2="1527.9985" y2="2560.626" gradientTransform="matrix(1 0.0077 -0.0077 1 9.5247 16.8137)">
						<stop  offset="0" style="stop-color:#4F52FF"/>
						<stop  offset="1" style="stop-color:#4042E2"/>
					</linearGradient>
					<path style="fill:url(#SVGID_00000011723783060997018320000016311665679760640399_);" d="M1490.35,2549.174
						c-47.209-10.837-156.319-5.01-156.319-5.01l-4.437,12.018l-7.35,59.738c0,0,103.909,18.729,155.128,18.684
						c5.226-0.005,10.006-0.789,14.371-2.148c1.562-1.401,3.088-2.854,4.532-4.431
						C1518.004,2604.292,1511.728,2569.43,1490.35,2549.174z"/>
					<path style="fill:#BDD0FB;" d="M1495.028,2550.359c-1.479-0.416-3.044-0.809-4.678-1.185
						c21.378,20.256,27.654,55.118,5.924,78.851c-1.444,1.577-2.969,3.03-4.532,4.431
						C1530.166,2620.497,1534.715,2561.523,1495.028,2550.359z"/>
					
						<linearGradient id="SVGID_00000009585508378566412440000004746991060832683907_" gradientUnits="userSpaceOnUse" x1="1451.3955" y1="2235.4875" x2="1245.1963" y2="2794.0007">
						<stop  offset="0" style="stop-color:#A22B25"/>
						<stop  offset="1" style="stop-color:#C0423C"/>
					</linearGradient>
					<path style="fill:url(#SVGID_00000009585508378566412440000004746991060832683907_);" d="M1302.68,2540.8l18.476,0.789
						c9.926,0.424,19.282,5.261,25.956,13.42c6.674,8.16,10.107,18.956,9.523,29.954c-0.466,8.769-4.064,16.971-9.998,22.79
						c-5.934,5.818-13.715,8.773-21.619,8.21l-28.27-2.012L1302.68,2540.8z"/>
				</g>
				<g>
					
						<linearGradient id="SVGID_00000073686445585948186850000000035242707642178207_" gradientUnits="userSpaceOnUse" x1="-5713.9878" y1="2523.8018" x2="-5518.5605" y2="2523.8018" gradientTransform="matrix(-0.9998 -0.02 -0.02 0.9998 -4813.9961 -50.8396)">
						<stop  offset="0" style="stop-color:#4F52FF"/>
						<stop  offset="1" style="stop-color:#4042E2"/>
					</linearGradient>
					<path style="fill:url(#SVGID_00000073686445585948186850000000035242707642178207_);" d="M681.424,2543.428
						c47.461-9.384,156.384-0.211,156.384-0.211l4.136,12.149l5.856,59.94c0,0-104.336,15.533-155.534,13.916
						c-5.224-0.165-9.982-1.096-14.312-2.588c-1.526-1.448-3.016-2.948-4.419-4.568
						C652.406,2597.676,659.549,2563.02,681.424,2543.428z"/>
					<path style="fill:#BDD0FB;" d="M676.718,2544.468c1.489-0.37,3.064-0.715,4.706-1.04
						c-21.875,19.592-29.019,54.248-7.889,78.638c1.404,1.621,2.893,3.12,4.419,4.568
						C639.844,2613.501,636.768,2554.411,676.718,2544.468z"/>
					
						<linearGradient id="SVGID_00000101815858997711156330000014551181632585514883_" gradientUnits="userSpaceOnUse" x1="1038.2719" y1="2067.1755" x2="831.9626" y2="2625.9863">
						<stop  offset="0" style="stop-color:#A22B25"/>
						<stop  offset="1" style="stop-color:#C0423C"/>
					</linearGradient>
					<path style="fill:url(#SVGID_00000101815858997711156330000014551181632585514883_);" d="M869.232,2540.816l-18.489,0.221
						c-9.933,0.118-19.406,4.666-26.281,12.618c-6.875,7.952-10.576,18.639-10.266,29.65c0.247,8.78,3.638,17.09,9.425,23.087
						c5.787,5.999,13.49,9.191,21.406,8.871l28.309-1.144L869.232,2540.816z"/>
				</g>
				
					<linearGradient id="SVGID_00000145762477267627178370000007365655263742223802_" gradientUnits="userSpaceOnUse" x1="1645.2635" y1="1547.246" x2="1139.9008" y2="2564.9893">
					<stop  offset="0" style="stop-color:#4F52FF"/>
					<stop  offset="1" style="stop-color:#4042E2"/>
				</linearGradient>
				<path style="fill:url(#SVGID_00000145762477267627178370000007365655263742223802_);" d="M1503.552,2361.903
					c-21.408-49.274-73.771-57.273-118.339-34.234c-0.776,1.019-283.024,145.675-531.934,209.073
					c7.125,22.844,10.789,47.151,11.589,71.044c0.144,5.323,0.055,10.573-0.257,15.753
					c190.877-9.803,398.036-73.461,576.049-129.404C1495.861,2476.334,1527.281,2416.515,1503.552,2361.903z"/>
				
					<linearGradient id="SVGID_00000036945762768107075370000009333979142486312867_" gradientUnits="userSpaceOnUse" x1="1015.1024" y1="2415.0566" x2="1078.2729" y2="1892.1478">
					<stop  offset="0" style="stop-color:#4F52FF"/>
					<stop  offset="1" style="stop-color:#4042E2"/>
				</linearGradient>
				<path style="fill:url(#SVGID_00000036945762768107075370000009333979142486312867_);" d="M1304.037,2611.53
					c-0.746-27.539,4.608-53.176,16.062-76.911c0.328-1.087,0.719-2.131,1.066-3.205c-14.214-4.402-32.576-10.366-56.698-18.55
					c-176.75-60.489-311.591-121.565-440.281-191.874c-49.994-27.314-106.837-9.008-122.841,50.148
					c-14.288,52.809,18.135,95.033,64.702,113.738c160.083,64.304,395.236,123.039,538.287,132.649
					C1304.226,2615.526,1304.104,2613.524,1304.037,2611.53z"/>
				
					<linearGradient id="SVGID_00000068659239408204552840000009825011075721096092_" gradientUnits="userSpaceOnUse" x1="1104.1903" y1="2094.5737" x2="1099.434" y2="1680.7426">
					<stop  offset="0" style="stop-color:#A22B25"/>
					<stop  offset="1" style="stop-color:#C0423C"/>
				</linearGradient>
				<path style="fill:url(#SVGID_00000068659239408204552840000009825011075721096092_);" d="M995.016,1891.568
					c0,0,19.009,82.376,111.298,80.665c94.001-1.71,102.38-80.935,102.38-80.935l-61.404-13.139l-5.131-68.418l-92.364,6.842
					l-1.711,64.997L995.016,1891.568z"/>
				
					<linearGradient id="SVGID_00000122699123532317054570000006164175000018805640_" gradientUnits="userSpaceOnUse" x1="1193.2849" y1="1333.0623" x2="1208.1013" y2="972.9569" gradientTransform="matrix(0.987 0.1608 -0.1608 0.987 126.9837 357.2448)">
					<stop  offset="0" style="stop-color:#A22B25"/>
					<stop  offset="1" style="stop-color:#C0423C"/>
				</linearGradient>
				<path style="fill:url(#SVGID_00000122699123532317054570000006164175000018805640_);" d="M1062.763,1615.89
					c0,0-105.849,205.035,19.712,254.78c88.566,35.087,144.094-136.159,127.532-182.541c-25.609-71.715-42.474-63.205-42.474-63.205
					L1062.763,1615.89z"/>
				<path style="fill:#FFFFFF;" d="M1210.006,1688.129c-0.299-0.838-0.556-1.577-0.793-2.273c0.405,3.783,0.622,7.722,0.666,11.784
					c0.161-2.889,0.295-5.783,0.394-8.679C1210.181,1688.687,1210.101,1688.395,1210.006,1688.129z"/>
				<path style="fill:#FFFFFF;" d="M1209.213,1685.856c-0.15-1.402-0.318-2.79-0.518-4.149
					C1214.141,1690.778,1203.666,1669.637,1209.213,1685.856z"/>
				
					<linearGradient id="SVGID_00000070077881170991548320000010964925899632683137_" gradientUnits="userSpaceOnUse" x1="1237.5221" y1="1029.9194" x2="1111.1345" y2="1335.4712" gradientTransform="matrix(0.987 0.1608 -0.1608 0.987 126.9837 357.2448)">
					<stop  offset="0" style="stop-color:#09005D"/>
					<stop  offset="1" style="stop-color:#1A0F91"/>
				</linearGradient>
				<path style="fill:url(#SVGID_00000070077881170991548320000010964925899632683137_);" d="M1259.009,1560.842
					c56.714-12.903,17.349,162.539-67.087,133.776c-84.435-28.763-123.774-46.428-136.931-23.242
					c-13.158,23.186-35.084,118.025-42.37,68.851c-6.81-45.962-13.4-130.19,30.965-148.573c25.19-10.438,47.341,12.182,64.703,6.52
					c26.737-8.72,52.48-9.012,68.361,0.145C1206.699,1615.644,1222.963,1569.042,1259.009,1560.842z"/>
				
					<linearGradient id="SVGID_00000004510295232205779050000013968329373669090195_" gradientUnits="userSpaceOnUse" x1="1042.2028" y1="1812.4492" x2="1065.4218" y2="1248.1263" gradientTransform="matrix(0.9995 0.0306 -0.0306 0.9995 31.2627 60.8675)">
					<stop  offset="0" style="stop-color:#A22B25"/>
					<stop  offset="1" style="stop-color:#C0423C"/>
				</linearGradient>
				<path style="fill:url(#SVGID_00000004510295232205779050000013968329373669090195_);" d="M1045.545,1705.486
					c0,0-18.309-27.647-26.651,0.647c-8.341,28.293-3.047,67.385,13.734,49.212
					C1049.41,1737.172,1045.545,1705.486,1045.545,1705.486z"/>
			</g>
		</g>
		<g>
			<path style="fill:#7D97F4;" d="M2239.206,2267.01c-2.527-6.427,6.803-12.14,13.481-8.293
				c67.811,39.063,234.403,160.809,229.89,412.247c-5.662,315.466,88.313,418.013,195.877,473.992
				c0,0-139.554-14.686-239.724-118.112C2192.79,2772.91,2284.146,2381.29,2239.206,2267.01z"/>
			<path style="fill:#FFFFFF;" d="M2298.793,2357.517c12.232,33.437,23.641,67.088,33.508,101.099
				c10.086,33.953,18.896,68.196,26.374,102.672c7.315,34.503,13.831,69.148,18.526,104.046
				c4.887,34.871,7.929,69.954,10.832,105.194c3.143,35.196,6.063,70.677,13.444,105.829c7.325,35.085,19.929,69.795,40.025,101.25
				c5.02,7.838,10.239,15.623,15.982,23.054c5.572,7.529,11.566,14.84,17.722,22.053c12.407,14.375,26.044,28.048,40.91,40.774
				c29.821,25.39,64.581,46.827,102.016,63.921c3.94,1.799,9.083,0.557,11.489-2.774c2.362-3.27,1.204-7.339-2.57-9.189
				l-0.027-0.013c-8.948-4.375-17.818-8.832-26.395-13.609c-4.339-2.331-8.533-4.82-12.786-7.24
				c-4.127-2.555-8.386-4.974-12.406-7.635c-16.31-10.409-31.647-21.784-45.821-34.079c-28.472-24.442-52.407-52.698-71.671-82.717
				c-9.422-15.112-17.432-30.827-23.904-47.058c-6.458-16.237-11.376-32.972-15.117-50.001
				c-7.489-34.077-10.735-69.16-14.187-104.322c-3.509-35.163-7.332-70.466-12.93-105.508c-2.741-17.527-5.869-34.996-9.38-52.393
				c-1.694-8.709-3.595-17.381-5.476-26.054c-1.984-8.655-4.027-17.297-6.156-25.92c-8.597-34.477-18.488-68.666-29.7-102.494
				c-11.413-33.775-23.933-67.242-38.031-100.189c-0.404-0.942-1.679-1.396-2.85-1.016
				C2299.077,2355.569,2298.458,2356.596,2298.793,2357.517z"/>
		</g>
		<g>
			<g>
				<path style="fill:#91B3FA;" d="M2555.17,3199.048c0.261,12.596-12.426,21.364-24.176,16.821
					c-64.836-25.068-241.739-112.523-315.739-340.797c-62.49-192.768-114.693-291.356-141.492-334.469
					c-5.667-9.117,3.598-20.169,13.572-16.2C2197.373,2568.194,2545.71,2742.646,2555.17,3199.048z"/>
				<path style="fill:#FFFFFF;" d="M2539.292,3205.281c-0.181,0.255-0.388,0.495-0.623,0.718c-1.967,1.874-5.08,1.798-6.954-0.168
					c-2.124-2.23-213.544-225.979-312.54-490.085c-0.952-2.542,0.336-5.377,2.88-6.333c2.544-0.953,5.378,0.336,6.333,2.88
					c98.274,262.183,308.339,484.538,310.448,486.753C2540.488,3200.778,2540.626,3203.399,2539.292,3205.281z"/>
			</g>
		</g>
		<g>
			<g>
				
					<linearGradient id="SVGID_00000078760979072141538310000010495157107812424629_" gradientUnits="userSpaceOnUse" x1="3146.145" y1="1719.8745" x2="2521.4609" y2="3179.8127">
					<stop  offset="0" style="stop-color:#09005D"/>
					<stop  offset="1" style="stop-color:#1A0F91"/>
				</linearGradient>
				<path style="fill:url(#SVGID_00000078760979072141538310000010495157107812424629_);" d="M2425.424,2237.318
					c-26.518,1.721-47.297,23.441-47.955,50.007c-4.027,162.458-17.089,722.837-10.854,921.419
					c0.661,21.038,17.525,37.924,38.563,38.612c104.05,3.405,403.371,12.035,573.562,4.895c35.448-1.487,63.637-30.2,64.373-65.672
					c3.537-170.521,11.339-650.13-7.207-869.84c-2.222-26.324-22.884-47.288-49.171-49.917
					C2873.42,2255.486,2572.458,2227.776,2425.424,2237.318z"/>
				
					<linearGradient id="SVGID_00000075884701476734279770000004961585351334111655_" gradientUnits="userSpaceOnUse" x1="2568.1179" y1="2366.311" x2="3032.7239" y2="3564.5027">
					<stop  offset="0" style="stop-color:#FF928E"/>
					<stop  offset="1" style="stop-color:#FE7062"/>
				</linearGradient>
				<path style="fill:url(#SVGID_00000075884701476734279770000004961585351334111655_);" d="M2462.063,2295.044
					c-23.021,1.256-41.332,19.726-42.315,42.76c-5.683,133.052-23.608,575.685-17.919,739.361
					c0.831,23.924,19.687,43.268,43.584,44.666c98.392,5.758,350.758,18.454,495.074,6.897
					c25.987-2.081,46.379-23.097,47.781-49.129c7.313-135.741,28.312-547.894,22.859-709.736
					c-0.87-25.818-20.87-46.904-46.599-49.214C2858.084,2311.092,2584.699,2288.352,2462.063,2295.044z"/>
				<path style="opacity:0.5;fill:#3F67F9;" d="M2634.617,2265.705L2634.617,2265.705c0,4.985,3.885,9.096,8.863,9.356
					c24.576,1.287,93.807,4.929,124.747,6.724c6.1,0.354,10.888-5.13,9.731-11.13l-0.198-1.024c-0.79-4.094-4.185-7.176-8.337-7.556
					c-20.914-1.917-84.021-7.23-125.833-5.738C2638.567,2256.518,2634.617,2260.679,2634.617,2265.705z"/>
			</g>
			<g>
				
					<linearGradient id="SVGID_00000054264483158669728680000014392208818258650045_" gradientUnits="userSpaceOnUse" x1="3005.3735" y1="3058.9683" x2="2589.1084" y2="2717.4175">
					<stop  offset="0" style="stop-color:#4F52FF"/>
					<stop  offset="1" style="stop-color:#4042E2"/>
				</linearGradient>
				<path style="fill:url(#SVGID_00000054264483158669728680000014392208818258650045_);" d="M2683.718,2821.586
					c-1.969,0.746-4.099,0.672-6.026-0.211l-139.177-63.755l9.883,81.112c1.383,11.351,8.395,20.693,17.874,23.777
					c86.747,28.225,167.945,34.55,238.789,0.008c6.459-3.149,11.434-9.402,13.738-17.104l25.31-84.629L2683.718,2821.586z"/>
				
					<linearGradient id="SVGID_00000132804695631281826840000011955186135175008145_" gradientUnits="userSpaceOnUse" x1="3057.2515" y1="2995.7434" x2="2640.9861" y2="2654.1926">
					<stop  offset="0" style="stop-color:#4F52FF"/>
					<stop  offset="1" style="stop-color:#4042E2"/>
				</linearGradient>
				<path style="fill:url(#SVGID_00000132804695631281826840000011955186135175008145_);" d="M2483.006,2696.996l219.107-90.355
					c1.916-0.79,4.007-0.794,5.926-0.012l216.691,88.375c8.059,3.287,7.933,16.615-0.187,19.693l-240.825,91.294
					c-1.969,0.746-4.099,0.672-6.026-0.211l-194.973-89.314C2475.035,2712.947,2475.223,2700.206,2483.006,2696.996z"/>
				
					<linearGradient id="SVGID_00000057108726136875565490000014207738283271930798_" gradientUnits="userSpaceOnUse" x1="3084.6218" y1="2962.385" x2="2668.3574" y2="2620.835">
					<stop  offset="0" style="stop-color:#4F52FF"/>
					<stop  offset="1" style="stop-color:#4042E2"/>
				</linearGradient>
				<path style="fill:url(#SVGID_00000057108726136875565490000014207738283271930798_);" d="M2913.958,2766.967
					c0,0-47.564,66.027-3.116,108.204c1.599,1.517,3.978,1.036,5.004-1.047l16.88-34.288
					C2945.258,2814.378,2913.958,2766.967,2913.958,2766.967z"/>
				
					<linearGradient id="SVGID_00000080918335823504174010000005757816634873108402_" gradientUnits="userSpaceOnUse" x1="2832.6479" y1="2400.0654" x2="2918.0354" y2="2773.636">
					<stop  offset="0" style="stop-color:#4F52FF"/>
					<stop  offset="1" style="stop-color:#4042E2"/>
				</linearGradient>
				<polygon style="fill:url(#SVGID_00000080918335823504174010000005757816634873108402_);" points="2913.775,2777.584 
					2908.987,2777.584 2908.987,2733.187 2918.038,2730.113 				"/>
			</g>
		</g>
	</g>
</g>
</svg>
